<!DOCTYPE svg PUBLIC "-//W3C//DTD SVG 20010904//EN" "http://www.w3.org/TR/2001/REC-SVG-20010904/DTD/svg10.dtd">
<svg version="1.0" xmlns="http://www.w3.org/2000/svg" width="736px" height="729px" viewBox="0 0 7360 7290" preserveAspectRatio="xMidYMid meet">
<g id="layer101" fill="#020202" stroke="none">
 <path d="M3804 6249 c-28 -10 -98 -57 -156 -104 -72 -58 -112 -83 -123 -79 -9 4 -47 -9 -89 -30 -123 -60 -216 -172 -264 -318 -10 -29 -17 -59 -16 -65 1 -7 2 -17 3 -23 2 -21 18 -9 36 28 22 45 31 27 16 -33 -18 -70 -14 -136 12 -185 22 -44 112 -129 123 -117 4 4 9 48 12 99 l4 93 44 -4 c38 -3 44 0 44 16 0 11 -16 34 -34 53 -33 31 -34 34 -21 60 14 27 52 50 84 50 10 0 52 -31 92 -70 41 -38 79 -70 85 -70 16 0 41 31 59 73 29 69 13 173 -28 182 -12 2 -31 6 -42 8 -11 3 3 5 31 6 41 1 62 8 100 34 104 70 151 172 141 310 -9 113 -20 122 -113 86z m46 -68 c0 -10 -7 -21 -15 -25 -8 -3 -15 -16 -15 -29 0 -39 -48 -123 -95 -166 -46 -43 -63 -47 -137 -33 l-37 7 53 71 c59 78 132 146 186 175 45 23 60 24 60 0z m3 -120 c-20 -76 -54 -132 -100 -164 -59 -41 -62 -33 -9 18 50 49 92 125 102 188 4 23 10 34 14 27 4 -7 1 -38 -7 -69z m-342 -44 c-10 -9 -11 -8 -5 6 3 10 9 15 12 12 3 -3 0 -11 -7 -18z m166 -364 c-11 -63 -38 -70 -52 -12 -5 20 -2 28 17 37 37 17 41 14 35 -25z m-299 -89 c33 -9 27 -21 -14 -29 -38 -7 -61 5 -50 24 8 12 30 14 64 5z"/>
 <path d="M6327 6071 c-9 -4 -33 -33 -53 -65 -62 -104 -404 -772 -405 -792 0 -10 -8 4 -18 33 -24 69 -44 98 -91 130 -83 54 -196 38 -265 -38 -64 -71 -69 -118 -30 -243 37 -113 41 -179 19 -272 -15 -65 -22 -80 -46 -93 -19 -11 -28 -24 -28 -41 0 -14 -11 -42 -25 -62 -14 -20 -25 -44 -25 -52 0 -29 25 -16 55 29 17 24 36 45 43 45 11 0 49 -16 60 -26 2 -1 -4 -16 -14 -33 -22 -37 -13 -49 38 -57 42 -7 25 -28 203 246 182 279 182 280 210 280 46 0 56 16 342 545 175 322 183 339 183 379 0 27 -6 40 -25 52 -34 22 -107 42 -128 35z m-835 -886 c5 -40 -7 -47 -16 -10 -6 23 -1 45 8 45 2 0 6 -16 8 -35z m33 -85 c3 -5 1 -10 -4 -10 -6 0 -11 5 -11 10 0 6 2 10 4 10 3 0 8 -4 11 -10z m255 -10 c-11 -21 -60 -50 -82 -50 -7 1 3 9 23 20 19 10 41 26 48 34 18 22 24 20 11 -4z m-220 -25 c11 -13 10 -14 -4 -9 -9 3 -16 10 -16 15 0 13 6 11 20 -6z m117 -199 c-62 -95 -119 -184 -127 -196 l-16 -23 -27 25 -26 25 24 59 c30 72 38 142 27 212 -5 28 -7 52 -5 52 3 0 30 -7 60 -16 64 -19 124 -13 168 16 17 11 31 20 32 20 1 0 -48 -78 -110 -174z"/>
 <path d="M1127 6040 c-36 -23 -47 -35 -47 -55 0 -25 40 -104 258 -505 241 -445 224 -420 273 -420 24 0 44 -27 194 -255 92 -140 173 -259 180 -265 9 -7 25 -8 47 -2 26 7 32 13 31 30 -2 12 -4 32 -5 43 -2 16 5 25 26 32 27 9 32 7 66 -33 46 -54 62 -38 24 25 -14 25 -23 52 -20 60 3 10 -5 20 -23 29 -44 23 -56 66 -55 191 1 92 5 122 27 184 15 41 27 84 27 96 0 64 -53 150 -117 192 -34 23 -146 23 -188 1 -63 -34 -104 -94 -108 -158 -2 -38 -17 -59 -17 -24 0 15 -133 281 -265 529 -23 44 -68 130 -100 190 -32 61 -64 118 -73 128 -24 27 -81 22 -135 -13z m683 -714 c0 -2 -8 -10 -17 -17 -16 -13 -17 -12 -4 4 13 16 21 21 21 13z m-53 -148 c-3 -8 -6 -5 -6 6 -1 11 2 17 5 13 3 -3 4 -12 1 -19z m136 -185 c28 -4 63 1 93 11 26 9 49 16 50 16 1 0 0 -35 -3 -77 -4 -77 5 -131 38 -211 13 -30 12 -34 -13 -58 -14 -15 -31 -24 -36 -20 -8 5 -213 320 -256 394 -4 7 12 -1 37 -19 28 -20 61 -33 90 -36z"/>
 <path d="M3148 5839 c-94 -96 -173 -214 -234 -349 -54 -122 -65 -137 -108 -145 -112 -22 -217 -80 -190 -104 15 -14 134 -49 208 -62 81 -14 199 -7 222 12 15 12 2 15 -102 25 -295 27 -314 66 -34 68 132 1 268 -22 290 -49 14 -16 12 -18 -75 -45 -49 -16 -108 -24 -195 -29 l-125 -6 -12 -55 c-34 -144 16 -272 167 -420 109 -108 213 -175 355 -228 206 -78 386 -108 596 -98 222 9 406 45 587 113 124 46 393 161 410 175 7 6 12 21 10 32 -3 19 -10 21 -78 21 -80 0 -72 -3 -247 88 -39 21 -94 43 -122 50 -46 11 -69 27 -38 27 15 0 198 -39 370 -79 71 -16 135 -27 143 -24 8 3 14 17 14 31 0 20 -18 44 -69 93 -99 95 -299 195 -529 263 -208 63 -526 110 -807 121 -98 4 -183 12 -200 20 -80 33 -181 157 -210 260 -27 91 -17 157 40 261 25 47 44 91 42 97 -3 7 -38 -22 -79 -64z m607 -718 l50 -2 -44 -40 c-75 -67 -165 -111 -273 -134 -42 -8 -34 -23 15 -27 77 -6 217 31 325 86 68 34 67 18 -2 -28 -98 -65 -265 -105 -436 -106 -61 -1 -64 -2 -45 -16 31 -24 302 -14 409 16 87 23 122 22 62 -4 -152 -64 -382 -68 -573 -9 -55 17 -61 33 -12 33 78 0 213 70 315 163 62 57 99 76 139 72 11 -2 43 -3 70 -4z m530 -211 c3 -5 -3 -10 -14 -10 -36 0 -142 -38 -181 -65 -44 -30 -70 -78 -70 -126 0 -40 -9 -33 -15 11 -7 60 37 135 98 167 53 27 170 42 182 23z m-335 -30 c0 -5 -5 -10 -11 -10 -5 0 -7 5 -4 10 3 6 8 10 11 10 2 0 4 -4 4 -10z m-37 -101 c-5 -52 -8 -59 -14 -37 -6 25 8 114 17 105 2 -2 1 -33 -3 -68z m-955 43 c2 -7 -2 -10 -12 -6 -9 3 -16 11 -16 16 0 13 23 5 28 -10z m1362 -6 c0 -3 -4 -8 -10 -11 -5 -3 -10 -1 -10 4 0 6 5 11 10 11 6 0 10 -2 10 -4z m-765 -124 c79 -5 90 -8 55 -12 -95 -11 -279 20 -326 55 -12 9 14 5 76 -11 52 -14 140 -28 195 -32z m-269 -50 c-9 -9 -37 8 -31 18 5 8 11 7 21 -1 8 -6 12 -14 10 -17z m324 -42 c0 -5 -4 -10 -9 -10 -6 0 -13 5 -16 10 -3 6 1 10 9 10 9 0 16 -4 16 -10z m923 -11 c20 -5 37 -14 37 -19 0 -10 -6 -12 -40 -14 -8 -1 -46 -10 -83 -20 -57 -16 -70 -17 -77 -6 -11 18 6 49 33 60 30 12 85 12 130 -1z m-973 -67 c0 -31 -21 -44 -42 -25 -14 12 -15 19 -7 30 17 19 49 16 49 -5z"/>
 <path d="M4095 5469 c-35 -76 -121 -144 -227 -178 -21 -7 -38 -16 -38 -21 0 -11 92 -22 190 -24 74 -1 75 0 90 29 48 93 63 99 35 14 -17 -50 -17 -53 1 -66 26 -19 62 -16 74 7 11 21 1 108 -22 178 -10 33 -63 102 -78 102 -4 0 -15 -18 -25 -41z m-15 -164 c-7 -8 -17 -15 -22 -15 -6 0 -5 7 2 15 7 8 17 15 22 15 6 0 5 -7 -2 -15z"/>
 <path d="M1228 5183 c-50 -31 -69 -112 -103 -435 -26 -244 -29 -368 -10 -368 6 0 15 54 21 122 30 316 36 369 59 470 14 58 25 119 25 135 0 37 16 53 52 53 23 0 28 -4 28 -25 0 -30 15 -33 29 -6 8 14 6 25 -10 45 -24 30 -52 33 -91 9z"/>
 <path d="M6256 5181 c-21 -24 -17 -65 7 -69 12 -3 17 3 17 22 0 21 5 26 25 26 35 0 52 -33 60 -115 4 -38 20 -169 36 -289 16 -121 29 -250 29 -287 0 -47 4 -70 15 -79 26 -21 28 12 12 168 -8 81 -15 172 -16 202 -1 30 -8 93 -16 140 -7 47 -16 110 -20 140 -10 82 -23 117 -55 140 -35 25 -72 26 -94 1z"/>
 <path d="M2970 4617 c0 -26 81 -212 98 -225 26 -20 37 2 23 49 -7 22 -11 42 -9 44 2 1 30 -13 63 -32 33 -19 49 -31 35 -28 -44 12 -45 11 -43 -37 3 -48 3 -48 -30 -48 -45 0 -59 -12 -55 -46 3 -28 4 -29 58 -26 30 1 114 14 185 27 72 14 170 29 220 35 97 12 110 16 74 24 -265 56 -417 118 -543 221 -68 55 -76 59 -76 42z"/>
 <path d="M2845 4574 c-5 -2 -143 -26 -305 -53 -162 -28 -565 -95 -895 -151 -330 -55 -616 -105 -635 -111 -67 -21 -167 -88 -230 -155 -106 -114 -142 -220 -154 -449 -4 -66 -11 -190 -16 -275 -20 -329 -22 -370 -22 -453 0 -101 7 -136 38 -199 32 -64 79 -115 141 -155 107 -68 -132 -63 3054 -61 l2884 3 67 32 c84 39 160 114 196 191 25 53 27 67 28 197 1 77 -4 226 -12 330 -7 105 -17 267 -24 360 -6 94 -17 200 -25 238 -26 127 -112 250 -225 326 -110 73 -116 74 -925 207 -187 30 -454 75 -594 100 -140 24 -268 44 -284 44 -39 0 -163 -68 -149 -82 6 -6 64 -18 129 -28 65 -10 276 -45 468 -79 193 -33 538 -92 769 -131 476 -80 489 -84 591 -191 73 -76 115 -165 121 -256 20 -308 36 -532 40 -553 2 -14 7 -99 10 -190 6 -153 5 -169 -15 -221 -37 -98 -112 -157 -226 -178 -81 -15 -5653 -16 -5723 -1 -104 23 -199 116 -221 219 -7 35 -6 102 4 247 8 110 17 237 20 284 26 382 35 479 46 505 23 53 86 140 129 179 91 82 28 68 1475 313 281 47 520 89 533 94 31 12 28 45 -7 80 -29 29 -36 32 -56 23z"/>
 <path d="M960 3390 l0 -590 189 0 c282 0 398 29 450 114 30 48 44 174 31 278 -11 92 -29 125 -78 148 -34 16 -42 30 -15 30 9 0 33 18 54 39 51 55 59 101 59 356 l0 215 -145 0 -145 0 0 -255 c0 -242 -1 -256 -20 -275 -11 -11 -33 -20 -50 -20 l-30 0 0 275 0 275 -150 0 -150 0 0 -590z m369 -157 c20 -16 22 -28 22 -112 0 -104 -7 -120 -57 -124 l-29 -2 -3 128 -3 127 25 0 c13 0 33 -8 45 -17z"/>
 <path d="M1777 3973 c-2 -5 -3 -17 -2 -28 1 -11 2 -273 3 -582 l2 -563 193 0 c267 0 364 23 434 103 39 44 58 139 49 243 -10 120 -39 166 -113 180 -40 8 -43 20 -5 27 44 9 96 49 117 92 18 35 20 60 20 200 0 180 -13 235 -66 279 -57 48 -110 56 -380 56 -136 0 -250 -3 -252 -7z m361 -188 c34 -10 42 -43 42 -180 0 -117 -1 -125 -22 -139 -12 -9 -39 -16 -60 -16 l-38 0 0 169 c0 194 -2 189 78 166z m6 -528 c16 -12 18 -29 18 -127 -1 -126 -7 -140 -64 -140 l-28 0 0 140 0 140 28 0 c16 0 36 -6 46 -13z"/>
 <path d="M2600 3390 l0 -592 253 4 c282 5 330 14 390 71 63 59 67 90 67 531 0 255 -4 405 -11 431 -14 49 -70 105 -125 124 -28 11 -111 16 -306 18 l-268 4 0 -591z m388 352 c15 -23 17 -64 20 -317 5 -398 1 -420 -71 -432 l-37 -6 0 391 c0 297 3 391 12 394 25 9 60 -5 76 -30z"/>
 <path d="M3440 3390 l0 -590 183 0 c198 0 287 10 357 41 95 42 120 88 127 234 9 165 -15 233 -96 275 -23 12 -23 12 16 30 81 36 92 80 95 365 l1 230 -141 3 -141 3 -3 -255 c-3 -233 -5 -256 -22 -275 -11 -12 -31 -21 -48 -21 l-28 0 0 275 0 275 -150 0 -150 0 0 -590z m371 -161 c19 -19 21 -30 17 -110 -3 -95 -12 -112 -60 -124 l-28 -7 0 131 0 131 25 0 c14 0 34 -9 46 -21z"/>
 <path d="M4250 3390 l0 -590 260 0 261 0 -3 123 -3 122 -104 5 -104 5 -1 105 -1 105 98 3 97 3 0 104 0 104 -96 3 -96 3 -1 125 -1 125 108 5 107 5 0 105 c0 58 0 111 0 118 -1 9 -60 12 -261 12 l-260 0 0 -590z"/>
 <path d="M4860 3969 c0 -7 27 -224 61 -483 33 -259 65 -509 70 -556 17 -147 -14 -130 234 -130 l214 0 6 33 c3 17 39 266 80 552 41 286 77 537 80 558 l5 37 -139 0 -139 0 -6 -37 c-3 -21 -8 -68 -11 -105 -4 -38 -10 -68 -13 -68 -4 0 -37 -2 -74 -4 l-67 -3 -6 66 c-3 36 -8 85 -11 109 l-5 42 -140 0 c-97 0 -139 -3 -139 -11z m425 -437 c-3 -15 -14 -124 -26 -242 -12 -118 -22 -216 -24 -218 -1 -1 -8 48 -14 110 -7 62 -19 171 -27 241 -8 71 -12 132 -10 135 2 4 27 5 55 4 48 -4 50 -5 46 -30z"/>
 <path d="M5700 3390 l0 -590 197 2 198 3 40 323 c21 177 42 322 46 322 3 0 9 -24 12 -52 3 -29 18 -176 33 -325 l28 -273 203 0 203 0 0 590 -1 590 -134 0 -135 0 0 -375 c0 -206 -4 -375 -9 -375 -4 0 -15 53 -24 118 -9 64 -30 218 -47 342 -16 124 -32 240 -35 258 l-6 32 -89 0 -88 0 -6 -27 c-3 -16 -28 -190 -57 -388 -28 -198 -52 -362 -55 -364 -2 -2 -4 172 -4 387 l0 392 -135 0 -135 0 0 -590z"/>
 <path d="M3558 2379 c-14 -4 -58 -32 -96 -63 -74 -60 -86 -65 -96 -41 -4 10 7 29 29 51 19 19 35 39 35 44 0 19 -34 10 -63 -17 -25 -25 -30 -26 -40 -12 -16 21 -45 30 -50 16 -2 -7 0 -23 5 -36 6 -16 4 -28 -4 -38 -29 -35 -327 -257 -508 -378 -201 -134 -388 -245 -413 -245 -8 0 -22 12 -31 26 -24 36 -41 25 -41 -26 0 -27 -5 -46 -15 -51 -34 -19 -329 -158 -375 -177 -27 -11 -63 -24 -80 -27 -16 -4 -48 -15 -70 -25 -22 -10 -122 -40 -223 -68 -150 -40 -184 -46 -193 -35 -6 7 -20 13 -31 13 -15 0 -31 25 -70 108 -28 59 -55 123 -60 142 -43 166 -76 357 -84 485 -4 55 -8 111 -9 125 -2 14 -3 69 -4 123 -1 79 -4 97 -16 97 -18 0 -17 17 -5 -233 9 -182 23 -299 51 -432 9 -43 25 -98 81 -275 14 -47 74 -167 99 -198 27 -35 24 -58 -8 -67 -16 -4 -34 -11 -40 -17 -17 -14 -16 -57 1 -64 24 -9 433 101 581 156 563 210 1136 548 1675 986 162 132 184 153 153 155 -10 1 -27 2 -38 4 -11 1 -32 -2 -47 -6z m-219 -132 c14 -18 -7 -37 -179 -165 -245 -181 -734 -492 -775 -492 -31 0 -11 34 35 59 230 123 592 367 835 563 66 53 68 54 84 35z m-1002 -674 c8 -23 -309 -176 -542 -261 -113 -41 -416 -132 -441 -132 -9 0 -14 11 -14 30 0 23 5 31 23 34 12 3 59 13 105 21 80 16 126 30 297 93 110 41 148 54 160 58 6 2 17 8 25 13 8 5 33 14 55 21 22 7 98 41 170 76 128 62 155 70 162 47z"/>
 <path d="M3888 2383 c-10 -2 -18 -8 -18 -13 0 -9 213 -184 355 -291 526 -396 1079 -702 1570 -868 189 -64 484 -134 501 -120 27 22 16 50 -26 67 -22 9 -40 23 -40 30 0 7 18 43 40 79 39 65 77 158 100 243 7 25 18 61 26 80 37 95 71 316 80 530 11 236 11 243 -2 247 -8 3 -14 -37 -18 -134 -19 -406 -63 -645 -157 -836 -43 -89 -56 -107 -75 -107 -12 0 -24 -6 -27 -14 -4 -11 -42 -4 -189 36 -101 27 -208 61 -239 74 -31 13 -65 24 -75 24 -11 0 -36 9 -57 20 -20 11 -43 20 -51 20 -7 0 -35 12 -62 27 -27 15 -103 53 -169 85 -66 31 -120 61 -119 65 0 4 4 21 8 36 5 17 5 32 -1 38 -13 13 -41 1 -48 -22 -9 -28 -27 -24 -118 27 -219 124 -450 280 -699 473 l-138 106 6 43 c6 38 5 42 -12 36 -11 -4 -26 -13 -35 -21 -13 -11 -19 -9 -39 12 -26 28 -60 33 -60 10 0 -8 14 -24 30 -37 30 -22 42 -68 18 -68 -7 0 -46 27 -87 60 -41 33 -84 60 -95 60 -12 0 -30 2 -41 4 -11 2 -28 2 -37 -1z m431 -207 c239 -188 574 -412 771 -517 63 -34 91 -69 54 -69 -21 0 -88 38 -304 173 -282 177 -660 447 -660 473 0 10 11 19 28 23 2 1 52 -37 111 -83z m1047 -657 c81 -39 163 -73 181 -76 18 -3 38 -12 44 -19 6 -8 20 -14 30 -14 10 0 36 -9 57 -20 21 -11 61 -27 88 -35 27 -8 94 -30 149 -49 55 -19 134 -40 175 -47 41 -7 81 -16 88 -22 19 -15 15 -57 -6 -57 -35 0 -391 112 -527 167 -141 56 -404 179 -439 206 -18 13 -16 37 3 37 4 0 75 -32 157 -71z"/>
 </g>
<g id="layer102" fill="#ffffff" stroke="none">
 <path d="M0 3645 l0 -3645 3680 0 3680 0 0 3645 0 3645 -3680 0 -3680 0 0 -3645z m3899 2611 c21 -25 25 -166 7 -229 -33 -113 -135 -206 -230 -208 -28 -1 -42 -3 -31 -6 11 -2 30 -6 42 -8 41 -9 57 -113 28 -182 -18 -42 -43 -73 -59 -73 -6 0 -44 32 -85 70 -40 39 -82 70 -92 70 -32 0 -70 -23 -84 -50 -13 -26 -12 -29 21 -60 18 -19 34 -42 34 -53 0 -16 -6 -19 -44 -16 l-44 4 -4 -93 c-3 -51 -8 -95 -12 -99 -11 -12 -101 73 -123 117 -26 49 -30 115 -12 185 15 60 6 78 -16 33 -18 -37 -34 -49 -36 -28 -1 6 -2 16 -3 23 -1 6 6 36 16 65 48 146 141 258 264 318 42 21 80 34 89 30 11 -4 51 21 123 79 130 104 223 145 251 111z m2556 -220 c19 -12 25 -25 25 -52 0 -40 -8 -57 -183 -379 -286 -529 -296 -545 -342 -545 -28 0 -28 -1 -210 -280 -178 -274 -161 -253 -203 -246 -51 8 -60 20 -38 57 10 17 16 32 14 33 -11 10 -49 26 -60 26 -7 0 -26 -21 -43 -45 -30 -45 -55 -58 -55 -29 0 8 11 32 25 52 14 20 25 48 25 62 0 17 9 30 28 41 24 13 31 28 46 93 22 93 18 159 -19 272 -39 125 -34 172 30 243 69 76 182 92 265 38 47 -32 67 -61 91 -130 10 -29 18 -43 18 -33 1 20 343 688 405 792 20 32 44 61 53 65 21 7 94 -13 128 -35z m-5193 17 c9 -10 41 -67 73 -128 32 -60 77 -146 100 -190 132 -248 265 -514 265 -529 0 -35 15 -14 17 24 4 64 45 124 108 158 42 22 154 22 188 -1 64 -42 117 -128 117 -192 0 -12 -12 -55 -27 -96 -22 -62 -26 -92 -27 -184 -1 -125 11 -168 55 -191 18 -9 26 -19 23 -29 -3 -8 6 -35 20 -60 38 -63 22 -79 -24 -25 -34 40 -39 42 -66 33 -21 -7 -28 -16 -26 -32 1 -11 3 -31 5 -43 1 -17 -5 -23 -31 -30 -22 -6 -38 -5 -47 2 -7 6 -88 125 -180 265 -150 228 -170 255 -194 255 -49 0 -32 -25 -273 420 -218 401 -258 480 -258 505 0 20 11 32 47 55 54 35 111 40 135 13z m1923 -247 c-57 -104 -67 -170 -40 -261 29 -103 130 -227 210 -260 17 -8 102 -16 200 -20 281 -11 599 -58 807 -121 129 -38 213 -72 341 -137 138 -69 257 -171 257 -219 0 -14 -6 -28 -14 -31 -8 -3 -72 8 -143 24 -172 40 -355 79 -370 79 -31 0 -8 -16 38 -27 28 -7 83 -29 122 -50 175 -91 167 -88 247 -88 68 0 75 -2 78 -21 2 -11 -3 -26 -10 -32 -17 -14 -286 -129 -410 -175 -181 -68 -365 -104 -587 -113 -210 -10 -390 20 -596 98 -142 53 -246 120 -355 228 -151 148 -201 276 -167 420 l12 55 125 6 c110 6 231 30 273 56 19 12 -21 33 -91 50 -115 26 -402 22 -402 -7 0 -13 100 -32 234 -44 104 -10 117 -13 102 -25 -23 -19 -141 -26 -222 -12 -74 13 -193 48 -208 62 -27 24 78 82 190 104 43 8 54 23 108 145 26 58 73 143 103 189 61 92 202 243 210 224 2 -6 -17 -50 -42 -97z m973 -330 c33 -38 46 -71 62 -163 8 -45 8 -68 0 -83 -12 -23 -48 -26 -74 -7 -18 13 -18 16 -1 66 28 85 13 79 -35 -14 -15 -29 -16 -30 -90 -29 -98 2 -190 13 -190 24 0 5 17 14 38 21 106 34 192 102 227 178 10 23 21 41 25 41 5 0 21 -15 38 -34z m-2839 -302 c16 -20 18 -31 10 -45 -14 -27 -29 -24 -29 6 0 21 -5 25 -28 25 -36 0 -52 -16 -52 -53 0 -16 -11 -77 -25 -135 -23 -101 -29 -154 -59 -470 -6 -68 -15 -122 -21 -122 -19 0 -16 124 10 368 34 323 53 404 103 435 39 24 67 21 91 -9z m5031 6 c32 -23 45 -58 55 -140 4 -30 13 -93 20 -140 8 -47 15 -110 16 -140 1 -30 8 -121 16 -202 16 -156 14 -189 -12 -168 -11 9 -15 32 -15 79 0 37 -13 166 -29 287 -16 120 -32 251 -36 289 -8 82 -25 115 -60 115 -20 0 -25 -5 -25 -26 0 -19 -5 -25 -17 -22 -24 4 -28 45 -7 69 22 25 59 24 94 -1z m-3304 -605 c126 -103 278 -165 543 -221 36 -8 23 -12 -74 -24 -50 -6 -148 -21 -220 -35 -71 -13 -155 -26 -185 -27 -54 -3 -55 -2 -58 26 -4 34 10 46 55 46 33 0 33 0 30 48 -2 48 -1 49 43 37 14 -3 -2 9 -35 28 -33 19 -61 33 -63 32 -2 -2 2 -22 9 -44 14 -47 3 -69 -23 -49 -17 13 -98 199 -98 225 0 17 8 13 76 -42z m-145 -24 c35 -35 38 -68 7 -80 -13 -5 -252 -47 -533 -94 -1447 -245 -1384 -231 -1475 -313 -43 -39 -106 -126 -129 -179 -11 -26 -20 -123 -46 -505 -3 -47 -12 -174 -20 -284 -10 -145 -11 -212 -4 -247 22 -103 117 -196 221 -219 70 -15 5642 -14 5723 1 114 21 189 80 226 178 20 52 21 68 15 221 -3 91 -8 176 -10 190 -4 21 -20 245 -40 553 -6 91 -48 180 -121 256 -102 107 -115 111 -591 191 -231 39 -576 98 -769 131 -192 34 -403 69 -468 79 -65 10 -123 22 -129 28 -14 14 110 82 149 82 16 0 144 -20 284 -44 140 -25 407 -70 594 -100 809 -133 815 -134 925 -207 113 -76 199 -199 225 -326 8 -38 19 -144 25 -238 7 -93 17 -255 24 -360 8 -104 13 -253 12 -330 -1 -130 -3 -144 -28 -197 -36 -77 -112 -152 -196 -191 l-67 -32 -2884 -3 c-3186 -2 -2947 -7 -3054 61 -62 40 -109 91 -141 155 -31 63 -38 98 -38 199 0 83 2 124 22 453 5 85 12 209 16 275 12 229 48 335 154 449 63 67 163 134 230 155 19 6 305 56 635 111 330 56 733 123 895 151 162 27 300 51 305 53 20 9 27 6 56 -23z m-1641 -846 l0 -275 30 0 c17 0 39 9 50 20 19 19 20 33 20 275 l0 255 145 0 145 0 0 -215 c0 -255 -8 -301 -59 -356 -21 -21 -45 -39 -54 -39 -27 0 -19 -14 15 -30 49 -23 67 -56 78 -148 13 -104 -1 -230 -31 -278 -52 -85 -168 -114 -450 -114 l-189 0 0 590 0 590 150 0 150 0 0 -275z m1068 260 c121 -36 147 -93 147 -320 0 -140 -2 -165 -20 -200 -21 -43 -73 -83 -117 -92 -38 -7 -35 -19 5 -27 74 -14 103 -60 113 -180 9 -104 -10 -199 -49 -243 -70 -80 -167 -103 -434 -103 l-193 0 -2 563 c-1 309 -2 571 -3 582 -1 11 0 23 2 28 2 4 116 7 252 7 193 0 259 -3 299 -15z m846 -6 c55 -19 111 -75 125 -124 7 -26 11 -176 11 -431 0 -441 -4 -472 -67 -531 -60 -57 -108 -66 -390 -71 l-253 -4 0 592 0 591 268 -4 c195 -2 278 -7 306 -18z m566 -254 l0 -275 28 0 c17 0 37 9 48 21 17 19 19 42 22 275 l3 255 141 -3 141 -3 -1 -230 c-3 -285 -14 -329 -95 -365 -39 -18 -39 -18 -16 -30 81 -42 105 -110 96 -275 -7 -146 -32 -192 -127 -234 -70 -31 -159 -41 -357 -41 l-183 0 0 590 0 590 150 0 150 0 0 -275z m1031 263 c0 -7 0 -60 0 -118 l0 -105 -107 -5 -108 -5 1 -125 1 -125 96 -3 96 -3 0 -104 0 -104 -97 -3 -98 -3 1 -105 1 -105 104 -5 104 -5 3 -122 3 -123 -261 0 -260 0 0 590 0 590 260 0 c201 0 260 -3 261 -12z m373 -30 c3 -24 8 -73 11 -109 l6 -66 67 3 c37 2 70 4 74 4 3 0 9 30 13 68 3 37 8 84 11 105 l6 37 139 0 139 0 -5 -37 c-3 -21 -39 -272 -80 -558 -41 -286 -77 -535 -80 -552 l-6 -33 -214 0 c-248 0 -217 -17 -234 130 -5 47 -37 297 -70 556 -34 259 -61 476 -61 483 0 8 42 11 139 11 l140 0 5 -42z m826 -350 c0 -215 2 -389 4 -387 3 2 27 166 55 364 29 198 54 372 57 388 l6 27 88 0 89 0 6 -32 c3 -18 19 -134 35 -258 17 -124 38 -278 47 -342 9 -65 20 -118 24 -118 5 0 9 169 9 375 l0 375 135 0 134 0 1 -590 0 -590 -203 0 -203 0 -28 273 c-15 149 -30 296 -33 325 -3 28 -9 52 -12 52 -4 0 -25 -145 -46 -322 l-40 -323 -198 -3 -197 -2 0 590 0 590 135 0 135 0 0 -392z m-2327 -1207 c31 -2 9 -23 -153 -155 -539 -438 -1112 -776 -1675 -986 -148 -55 -557 -165 -581 -156 -17 7 -18 50 -1 64 6 6 24 13 40 17 32 9 35 32 8 67 -25 31 -85 151 -99 198 -56 177 -72 232 -81 275 -28 133 -42 250 -51 432 -12 250 -13 233 5 233 12 0 15 -18 16 -97 1 -54 2 -109 4 -123 1 -14 5 -70 9 -125 8 -128 41 -319 84 -485 5 -19 32 -83 60 -142 39 -83 55 -108 70 -108 11 0 25 -6 31 -13 9 -11 43 -5 193 35 101 28 201 58 223 68 22 10 54 21 70 25 17 3 53 16 80 27 46 19 341 158 375 177 10 5 15 24 15 51 0 51 17 62 41 26 9 -14 23 -26 31 -26 25 0 212 111 413 245 181 121 479 343 508 378 8 10 10 22 4 38 -5 13 -7 29 -5 36 5 14 34 5 50 -16 10 -14 15 -13 40 12 29 27 63 36 63 17 0 -5 -16 -25 -35 -44 -22 -22 -33 -41 -29 -51 10 -24 22 -19 96 41 69 56 104 73 143 69 11 -2 28 -3 38 -4z m323 -1 c11 0 54 -27 95 -60 41 -33 80 -60 87 -60 24 0 12 46 -18 68 -16 13 -30 29 -30 37 0 23 34 18 60 -10 20 -21 26 -23 39 -12 9 8 24 17 35 21 17 6 18 2 12 -36 l-6 -43 138 -106 c249 -193 480 -349 699 -473 91 -51 109 -55 118 -27 7 23 35 35 48 22 6 -6 6 -21 1 -38 -4 -15 -8 -32 -8 -36 -1 -4 53 -34 119 -65 66 -32 142 -70 169 -85 27 -15 55 -27 62 -27 8 0 31 -9 51 -20 21 -11 46 -20 57 -20 10 0 44 -11 75 -24 31 -13 138 -47 239 -74 147 -40 185 -47 189 -36 3 8 15 14 27 14 19 0 32 18 75 107 94 191 138 430 157 836 4 97 10 137 18 134 13 -4 13 -11 2 -247 -9 -214 -43 -435 -80 -530 -8 -19 -19 -55 -26 -80 -23 -85 -61 -178 -100 -243 -22 -36 -40 -72 -40 -79 0 -7 18 -21 40 -30 42 -17 53 -45 26 -67 -17 -14 -312 56 -501 120 -491 166 -1044 472 -1570 868 -142 107 -355 282 -355 291 0 11 30 19 55 14 11 -2 29 -4 41 -4z"/>
 <path d="M3790 6181 c-54 -29 -127 -97 -186 -175 l-53 -71 37 -7 c74 -14 91 -10 137 33 47 43 95 127 95 166 0 13 7 26 15 29 18 7 20 44 3 44 -7 -1 -29 -9 -48 -19z"/>
 <path d="M3846 6103 c-10 -63 -52 -139 -102 -188 -26 -25 -44 -45 -39 -45 22 0 88 57 110 94 28 49 55 149 45 166 -4 7 -10 -4 -14 -27z"/>
 <path d="M3506 6023 c-6 -14 -5 -15 5 -6 7 7 10 15 7 18 -3 3 -9 -2 -12 -12z"/>
 <path d="M3642 5678 c-19 -9 -22 -17 -17 -37 14 -58 41 -51 52 12 6 39 2 42 -35 25z"/>
 <path d="M3314 5559 c-11 -19 12 -31 50 -24 41 8 47 20 14 29 -34 9 -56 7 -64 -5z"/>
 <path d="M5475 5210 c-7 -11 4 -60 14 -60 4 0 5 16 3 35 -4 37 -7 41 -17 25z"/>
 <path d="M5510 5100 c0 -5 5 -10 11 -10 5 0 7 5 4 10 -3 6 -8 10 -11 10 -2 0 -4 -4 -4 -10z"/>
 <path d="M5769 5094 c-7 -8 -29 -24 -48 -34 -20 -11 -30 -19 -23 -20 22 0 71 29 82 50 13 24 7 26 -11 4z"/>
 <path d="M5540 5071 c0 -5 7 -12 16 -15 14 -5 15 -4 4 9 -14 17 -20 19 -20 6z"/>
 <path d="M5755 5020 c-44 -29 -104 -35 -168 -16 -30 9 -57 16 -60 16 -2 0 0 -24 5 -52 11 -70 3 -140 -27 -212 l-24 -59 26 -25 27 -25 16 23 c34 50 239 370 237 370 -1 0 -15 -9 -32 -20z"/>
 <path d="M1789 5313 c-13 -16 -12 -17 4 -4 16 13 21 21 13 21 -2 0 -10 -8 -17 -17z"/>
 <path d="M1751 5184 c0 -11 3 -14 6 -6 3 7 2 16 -1 19 -3 4 -6 -2 -5 -13z"/>
 <path d="M1766 5048 c43 -74 248 -389 256 -394 5 -4 22 5 36 20 25 24 26 28 13 58 -33 80 -42 134 -38 211 3 42 4 77 3 77 -1 0 -24 -7 -50 -16 -66 -23 -127 -14 -183 25 -25 18 -41 26 -37 19z"/>
 <path d="M3637 5119 c-15 -4 -56 -34 -91 -66 -102 -93 -237 -163 -315 -163 -49 0 -43 -16 12 -33 191 -59 421 -55 573 9 60 26 25 27 -62 4 -107 -30 -378 -40 -409 -16 -19 14 -16 15 45 16 171 1 338 41 436 106 69 46 70 62 2 28 -108 -55 -248 -92 -325 -86 -49 4 -57 19 -15 27 108 23 198 67 273 134 l44 40 -50 2 c-27 1 -59 2 -70 4 -11 1 -32 -2 -48 -6z"/>
 <path d="M4173 4910 c-105 -21 -179 -104 -168 -190 6 -44 15 -51 15 -11 0 48 26 96 70 126 39 27 145 65 181 65 11 0 17 5 14 10 -7 12 -52 11 -112 0z"/>
 <path d="M3935 4880 c-3 -5 -1 -10 4 -10 6 0 11 5 11 10 0 6 -2 10 -4 10 -3 0 -8 -4 -11 -10z"/>
 <path d="M3902 4810 c-5 -22 -7 -53 -3 -68 6 -22 9 -15 14 37 8 76 4 88 -11 31z"/>
 <path d="M2930 4832 c0 -5 7 -13 16 -16 10 -4 14 -1 12 6 -5 15 -28 23 -28 10z"/>
 <path d="M4300 4809 c0 -5 5 -7 10 -4 6 3 10 8 10 11 0 2 -4 4 -10 4 -5 0 -10 -5 -10 -11z"/>
 <path d="M3284 4735 c47 -35 231 -66 326 -55 35 4 24 7 -55 12 -55 4 -143 18 -195 32 -62 16 -88 20 -76 11z"/>
 <path d="M3255 4660 c-3 -5 1 -13 10 -16 22 -9 29 1 11 15 -10 8 -16 9 -21 1z"/>
 <path d="M3585 4600 c3 -5 10 -10 16 -10 5 0 9 5 9 10 0 6 -7 10 -16 10 -8 0 -12 -4 -9 -10z"/>
 <path d="M4403 4590 c-27 -11 -44 -42 -33 -60 7 -11 20 -10 77 6 37 10 75 19 83 20 34 2 40 4 40 14 0 23 -122 38 -167 20z"/>
 <path d="M3511 4527 c-8 -11 -7 -18 7 -30 21 -19 42 -6 42 25 0 21 -32 24 -49 5z"/>
 <path d="M4060 5305 c-7 -8 -8 -15 -2 -15 5 0 15 7 22 15 7 8 8 15 2 15 -5 0 -15 -7 -22 -15z"/>
 <path d="M1262 3123 l3 -128 29 2 c50 4 57 20 57 124 0 84 -2 96 -22 112 -12 9 -32 17 -45 17 l-25 0 3 -127z"/>
 <path d="M2073 3793 c-10 -3 -13 -48 -13 -174 l0 -169 38 0 c21 0 48 7 60 16 21 14 22 22 22 139 0 137 -8 170 -42 180 -41 12 -53 13 -65 8z"/>
 <path d="M2070 3130 l0 -140 28 0 c57 0 63 14 64 140 0 125 -6 140 -64 140 l-28 0 0 -140z"/>
 <path d="M2912 3772 c-9 -3 -12 -97 -12 -394 l0 -391 37 6 c72 12 76 34 71 432 -3 253 -5 294 -20 317 -16 25 -51 39 -76 30z"/>
 <path d="M3740 3119 l0 -131 28 7 c48 12 57 29 60 124 4 80 2 91 -17 110 -12 12 -32 21 -46 21 l-25 0 0 -131z"/>
 <path d="M5184 3558 c-2 -3 2 -64 10 -135 8 -70 20 -179 27 -241 6 -62 13 -111 14 -110 2 2 12 100 24 218 12 118 23 227 26 242 4 25 2 26 -46 30 -28 1 -53 0 -55 -4z"/>
 <path d="M3255 2212 c-243 -196 -605 -440 -835 -563 -46 -25 -66 -59 -35 -59 41 0 530 311 775 492 172 128 193 147 179 165 -16 19 -18 18 -84 -35z"/>
 <path d="M2175 1526 c-72 -35 -148 -69 -170 -76 -22 -7 -47 -16 -55 -21 -8 -5 -19 -11 -25 -13 -12 -4 -50 -17 -160 -58 -171 -63 -217 -77 -297 -93 -46 -8 -93 -18 -105 -21 -18 -3 -23 -11 -23 -34 0 -19 5 -30 14 -30 25 0 328 91 441 132 233 85 550 238 542 261 -7 23 -34 15 -162 -47z"/>
 <path d="M4193 2253 c-29 -11 -6 -35 135 -140 196 -146 303 -219 512 -350 216 -135 283 -173 304 -173 37 0 9 35 -54 69 -197 105 -532 329 -771 517 -59 46 -109 84 -111 83 -2 0 -9 -3 -15 -6z"/>
 <path d="M5194 1578 c-4 -6 2 -18 12 -25 35 -27 298 -150 439 -206 136 -55 492 -167 527 -167 21 0 25 42 6 57 -7 6 -47 15 -88 22 -41 7 -120 28 -175 47 -55 19 -122 41 -149 49 -27 8 -67 24 -88 35 -21 11 -47 20 -57 20 -10 0 -24 6 -30 14 -6 7 -26 16 -44 19 -18 3 -100 37 -181 76 -82 39 -153 71 -157 71 -4 0 -11 -5 -15 -12z"/>
 </g>

</svg>