<?xml version="1.0" standalone="yes"?>
<svg xmlns="http://www.w3.org/2000/svg" width="740" height="733">
<path style="fill:#000000; stroke:none;" d="M107 240L108 240C112.045 226.315 109.568 210.171 111.285 196C113.716 175.948 116.925 153.379 128.074 136.055C130.208 132.74 133.883 131.306 136 128C151.353 135.707 170.732 138.211 187 143.835C199.458 148.141 217.555 154.608 227.812 162.966C230.541 165.189 228.97 170.276 231.564 171.744C234.062 173.157 236.862 168.609 240.043 169.511C248.19 171.82 256.881 178.547 264 183.053C282.288 194.63 299.924 207.12 317 220.424C320.669 223.283 325.83 226.289 328.473 230.171C329.812 232.138 328.645 236.57 330.646 237.749C332.655 238.934 342.037 239.556 345 240L340 228C349.5 234.831 355.554 242.309 368 240C365.169 234.054 359.013 230.463 354 226.389C344.156 218.39 334.27 210.463 324 203.011C281.49 172.164 236.197 145.456 187 126.808C172.624 121.359 157.897 117.333 143 113.627C138.754 112.57 130.444 108.936 126.244 110.644C120.289 113.064 132.174 120.469 128.965 126.001C113.773 152.191 107.012 184.858 107 215C106.997 223.27 104.613 231.924 107 240M389 240C400.978 242.85 407.807 234.273 417 228L411 240L420 235L421 235L427 239C429.836 220.136 459.517 204.993 475 194.667C487.679 186.21 501.019 176.292 514.999 170.113C518.96 168.363 522.696 173.497 525.421 171.824C527.986 170.25 526.282 165.259 529.163 162.966C536.801 156.888 549.944 151.656 559 147.978C579.066 139.831 601.312 136.716 621 128L628.034 135.143L638.845 160L646.911 212L649 240C653.208 234.445 650.047 223.719 649.997 217.001C649.811 191.987 644.991 167.577 636.758 144C634.757 138.27 625.284 126.812 626.033 121.278C626.502 117.811 635.604 116.506 631.953 111.607C629.112 107.794 617.711 112.74 614 113.576C595.966 117.64 578.161 123.335 561 130.2C514.126 148.95 470.586 175.238 430 205.116C417.821 214.081 395.577 226.188 389 240z"/>
<path style="fill:#ffffff; stroke:none;" d="M236 158C224.178 151.78 212.287 145.837 200 140.579C191.462 136.925 182.811 133.604 174 130.667C164.418 127.472 154.779 124.433 145 121.884C142.922 121.343 134.424 119.229 136.917 124.448C138.894 128.587 152.752 129.215 157 130.235C174.878 134.531 193.122 142.764 210 150.001C215.691 152.441 231.421 164.141 236 158M521 158L521 160C529.44 161.145 538.538 153.734 546 150.309C562.57 142.701 580.532 135.927 598 130.721C601.622 129.641 621.99 127.798 620.248 122.429C618.724 117.73 599.514 125.397 596 126.424C569.796 134.089 545.108 145.315 521 158z"/>
<path style="fill:#000000; stroke:none;" d="M618 125L619 126L618 125z"/>
<path style="fill:#ffffff; stroke:none;" d="M239 161C241.3 168.356 254.588 173.044 261 176.72C279.449 187.297 297.217 199.753 314 212.793C319.66 217.191 329.575 228.878 337 226L317 209.374L268 176.319L239 161M420 225L420 226C427.752 228.962 439.905 214.946 446 210.375C469.013 193.115 493.217 178.479 518 164L517 161C504.96 164.468 493.546 173.335 483 179.95C461.616 193.362 438.292 207.505 420 225z"/>
<path style="fill:#000000; stroke:none;" d="M477 448C485.434 457.845 496.648 455.998 508 454.081C529.668 450.422 551.318 446.665 573 443.08L633 433.08C647.362 430.701 661.643 429.329 674 420.907C705.156 399.669 699.211 351.997 701.079 319.004C701.831 305.722 704.885 289.707 699.931 277C695.134 264.699 682.776 255.764 670 253.465C658.56 251.406 645.611 253 634 253L563 253L189 253L112 253C92.9351 253 74.1572 254.627 64.3773 274C57.0365 288.541 60.8526 305.552 61.9105 321C64.3031 355.939 57.0806 400.386 91 422.301C102.718 429.872 116.54 430.999 130 433.247L192 443.586C217.657 447.889 243.402 451.807 269 456.424C275.686 457.63 290.514 463.79 293.971 454.96C297.486 445.984 278.316 445.732 273 445C246.588 441.362 220.266 436.314 194 431.75C173.672 428.218 153.354 424.639 133 421.247C121.816 419.383 108.877 418.94 99 412.882C69.6448 394.879 75.9424 353.672 73.9105 324C73.1032 312.211 69.7882 298.716 72.5285 286.999C75.8298 272.885 88.4023 265.486 102 264.17C135.998 260.88 171.829 264 206 264L557 264C584.329 264 611.695 264.429 639 264.429C653.574 264.429 670.456 261.992 681.96 273.093C697.919 288.493 689.525 317.413 688.089 337C686.706 355.859 689.726 380.474 679.289 397C665.433 418.942 641.088 419.263 618 423.08C586.974 428.209 556.025 433.781 525 438.92C510.271 441.359 490.404 441.541 477 448M98 282L98 400L129 400L128 345C137.671 345.88 137.999 352.751 138 361L138 400L167 400C167 381.033 174.122 348.009 154 338C169.742 331.819 170.966 298.476 157.957 288.638C142.771 277.155 115.812 282 98 282M179 282L179 400C196.183 400 223.31 405.118 239 397.431C252.903 390.62 254.53 357.211 247.142 345.004C243.934 339.703 238.284 338.781 234 335C253.518 333.229 251.866 298.581 239.711 288.8C224.951 276.925 196.586 282 179 282M262 282L262 400C279.467 400 311.559 406.149 325.985 394.606C333.008 388.987 333.778 379.443 333.985 371C334.47 351.204 336.009 329.624 333.424 310C332.338 301.751 332.315 293.191 324.957 287.638C309.954 276.316 279.717 282 262 282M346 282L346 370C346 376.995 346.142 384.007 345.985 391C345.936 393.209 344.792 397.284 346.693 398.972C351.391 403.146 369.78 400 376 400L376 345C391.578 346.736 386.018 376.661 386 388C385.996 390.708 384.695 396.054 386.198 398.397C389.089 402.906 409.862 400 415 400C415 381.489 421.743 347.826 402 338C418.231 330.254 417.69 296.486 402.999 287.133C387.95 277.552 363.008 282 346 282M427 282L427 400L480 400C480 395.14 482.468 380.253 478.397 377.028C474.402 373.864 462.941 376 458 376L458 350L477 350L475.566 329.144L458 328L458 307C462.941 307 474.402 309.136 478.397 305.972C482.567 302.669 480 287.002 480 282L427 282M502 282L494.282 346L487 400C492.695 400 512.142 403.041 515.821 398.397C518.804 394.631 517.987 383.718 518 379L533 379C533.003 383.827 532.093 394.501 535.179 398.397C538.783 402.947 557.444 400 563 400C562.404 371.148 555.081 340.532 550.59 312C549.61 305.77 550.272 287.074 545.258 283.028C542.529 280.825 536.282 282 533 282L502 282M572 282L572 400L599 400L599 322L600 322C600.138 338.621 604.501 355.549 606.718 372C607.717 379.421 607.245 391.037 610.738 397.682C612.604 401.232 625.369 401.304 628.258 398.972C632.098 395.873 631.484 383.643 632.13 379C634.725 360.38 636.557 341.48 640 323L641 323L640 400L668 400L668 282L627 282L621 347L620 347L612 282L572 282z"/>
<path style="fill:#ffffff; stroke:none;" d="M209 301L209 329C222.246 328.274 222.655 301.33 209 301M292 301L292 379C296.196 378.95 300.216 378.705 301.566 373.981C303.516 367.16 302 358.066 302 351C302 337.723 304.429 321.979 302.046 309.001C301.002 303.311 297.378 301.488 292 301M129.742 303.043C125.662 306.163 126.301 332.019 134.683 325.253C138.472 322.195 137.885 310.39 136.566 306.109C135.749 303.455 132.404 301.007 129.742 303.043M376 302L376 327C388.412 325.716 388.898 302.42 376 302M525 310L520 358L530 358C529.998 344.204 530.348 322.715 525 310M640.333 320.667L640.667 321.333L640.333 320.667M208 347L208 381C220.925 380.963 220 372.763 220 362C220 358.181 220.936 352.582 218.258 349.434C215.791 346.533 211.416 347.01 208 347z"/>
<path style="fill:#000000; stroke:none;" d="M316 436C315.27 440.33 313.064 443.995 318 446L318 447L310 451L311 440C303.402 444.222 300.314 457.018 298 465L324 449.109L363 437C353.489 431.302 334.146 431.585 323 429.615C319.334 428.967 312.762 427.089 309.243 428.618C301.101 432.155 312.779 435.989 316 436M302 518L302 519C291.563 519 282.105 519.526 272 522.427C269.339 523.192 262.395 524.69 264.176 528.856C267.801 537.334 282.876 533.816 288.034 541.059C299.105 556.606 304.735 587.031 326 593C322.722 584.117 316 576.793 315.188 567C314.058 553.359 325.566 535.937 338 530.702C344.513 527.96 352.147 529.261 359 528.961C368.652 528.538 378.333 527.08 388 527L388 528L385 528C387.805 532.245 393.695 533.246 398 535.746C402.831 538.552 409.845 551.457 414.198 551.963C417.41 552.337 419.528 548.344 420.722 545.996C424.773 538.034 429.168 517.702 414 525L418 536L410.787 527.028L388 527L388 526C417.106 525.759 450.636 515.626 476 501.688C480.895 498.998 503.208 486.48 496.968 478.618C494.445 475.441 486.181 478.873 483 479.576C470.004 482.446 457.081 485.535 444 488C447.814 485.065 453.52 484.549 458 482.561C465.007 479.452 471.422 474.268 479 472.529C482.268 471.779 492.125 473.674 493.503 469.698C494.917 465.616 487.628 463.132 485 462.001C474.375 457.427 463.753 452.867 453 448.601C411.01 431.942 357.966 431.515 318 453.862C301.993 462.813 285.322 477.52 280.899 496C279.648 501.225 278.322 513.289 283.513 516.972C287.563 519.846 297.19 518 302 518M113 438C107.708 455.902 113.894 483.831 117.084 502C118.188 508.286 119.169 518.605 126.015 521.257C133.443 524.134 138.758 513.87 131 514L132 518C122.173 517.257 123.715 506.604 121.87 499C118.538 485.259 117.513 471.053 116.17 457C115.591 450.944 116.541 443.182 113 438M646 440C641.696 458.078 640.806 479.379 639.075 498C638.352 505.769 639.36 516.09 630 518L630 512C621.998 516.913 629.8 525.029 636.945 520.258C643.015 516.205 642.519 507.425 643.424 501C645.172 488.601 645.989 476.406 647.17 464C647.918 456.135 650.288 447.74 648 440L646 440z"/>
<path style="fill:#ffffff; stroke:none;" d="M320.667 444.333L321.333 444.667L320.667 444.333M318 445L319 446L318 445M355 450C351.758 456.837 360.057 455.099 355 450M459 460C457.2 457.522 442.399 452.72 440.086 455.678C436.046 460.846 448.632 462.025 451 461.699C453.691 461.329 456.341 460.549 459 460z"/>
<path style="fill:#000000; stroke:none;" d="M172 522L173 522C173.849 541.469 199.149 551.625 210.892 533.996C221.127 518.631 205.811 501.856 209.681 485C211.76 475.942 222.482 468.867 221 459C213.05 463.834 207.672 469.817 209 456C194.738 454.248 186.674 475.489 179.667 486C175.577 492.135 171.849 499.576 166.674 504.853C163.517 508.072 159.025 508.398 156.232 512.109C143.472 529.069 135.469 550.558 125 569C120.922 576.184 107.552 593.511 110.618 601.957C113.862 610.893 126.287 611.031 131.034 603.985C142.474 587.004 151.082 566.331 160.247 548C164.314 539.866 171.062 531.16 172 522M554 465L538 458C539.427 471.136 550.878 479.256 551.624 493C552.304 505.529 540.926 520.117 548.009 532C559.228 550.82 585.224 543.501 588 523C599.902 549.717 613.19 578.359 629.055 602.996C634.142 610.895 651.423 611.406 650.423 599C649.647 589.374 640.534 578.492 636.248 570C626.646 550.979 616.874 529.158 604.046 512.109C601.439 508.644 597.353 508.481 594.329 505.686C590.449 502.101 587.916 496.377 585 492C579.256 483.38 573.745 474.618 568 466C565.844 462.766 563.435 457.216 559.674 455.607C551.387 452.062 551.173 459.95 554 465z"/>
<path style="fill:#ffffff; stroke:none;" d="M362 461L361 463L363 463L362 461M328 468L331 466L328 468M204 467L179 507C189.349 500.77 194.63 500.898 206 504C204.043 493.461 213.418 472.173 204 467M555 467C548.704 473.987 553.931 478.935 555.384 487C556.443 492.876 555.476 498.293 554 504C564.654 502.167 569.54 500.71 580 505C574.383 493.126 564.676 475.868 555 467M330 475L330 476L366 471C355.481 466.586 340.209 471.679 330 475M403 470L403 473L404 473L403 470M315 471L316 472L315 471M392 474L393 486L394 486L392 474M403 474C403.149 490.621 417.358 493 431 493L431 492C417.683 491.419 409.299 485.129 403 474M297 483L295 486L297 483M321 489L321 490C330.923 491.87 339.601 494.543 348 500.44C353.393 504.226 357.849 510.5 364 512.991C369.3 515.136 376.379 514 382 514L348 494C363.569 492.043 375.595 499.882 390 504L390 503C372.911 491.849 355.15 489 335 489C346.321 478.392 373.927 489.24 387 491C369.251 476.674 340.64 484.935 321 489M433 483L434 484L433 483M396 490L397 491L396 490M199 506L200 507L199 506M572 506L573 507L572 506M574 507L574 508L580 512L574 507M557 508L558 509L557 508M553 512L554 513L553 512M574 514L575 515L574 514M550 518L550 524L551 524L550 518M303 519L303 520L308 521L308 523L273 528L273 529C290.224 530.359 305.201 531.372 322 526L322 524L303 519M177 520L177 523L178 523L177 520M407 531L410 534L407 531M181 533L182 534L181 533M205 534L206 535L205 534z"/>
<path style="fill:#000000; stroke:none;" d="M324 571L323 571L317 564C317.71 580.282 328.14 596.307 342 604.525C348.99 608.669 356.519 609.06 363 614.201C368.5 618.563 382.592 632.808 390.718 627.958C395.073 625.36 394.046 617.24 393.996 613C393.797 595.864 381.683 584.002 365 584L365 583C376.686 582.862 379.533 564.662 369.892 558.658C361.455 553.405 356.203 571.981 348.001 570.11C335.209 567.191 349.093 558.909 346.744 554.564C345.447 552.167 340.215 553.002 338 553L337 534C319.471 540.791 322.064 556.011 324 571z"/>
<path style="fill:#ffffff; stroke:none;" d="M333 558L342 557C338.674 555.51 335.218 554.783 333 558M366 562C364.609 566.87 365.183 569.029 370 571L368 562L366 562M359 569L360 570L359 569M373 589C378.256 598.192 386 603.548 387 615L388 615C387.523 603.91 383.217 594.3 373 589M358 595C361.262 603.481 368.732 611.54 376 616.841C377.431 617.884 384.062 623.237 385.674 620.292C386.769 618.29 383.665 612.998 382.965 611C378.242 597.534 371.035 594.44 358 595M352 603L354 605L352 603z"/>
</svg>
